HIERARCHY
ROOT hips
{
	OFFSET 0.000000 104.274902 0.000000
	CHANNELS 6 Xposition Yposition Zposition Xrotation Yrotation Zrotation
	JOINT spine
	{
		OFFSET 0.000000 10.181549 0.131524
		CHANNELS 6 Xposition Yposition Zposition Xrotation Yrotation Zrotation
		JOINT chest
		{
			OFFSET 0.000000 9.893990 -1.470706
			CHANNELS 3 Xrotation Yrotation Zrotation
			JOINT upperChest
			{
				OFFSET 0.000000 9.220787 -1.370637
				CHANNELS 3 Xrotation Yrotation Zrotation
				JOINT neck
				{
					OFFSET 0.000000 16.740372 -2.049022
					CHANNELS 6 Xposition Yposition Zposition Xrotation Yrotation Zrotation
					JOINT head
					{
						OFFSET 0.000000 9.617859 1.684976
						CHANNELS 6 Xposition Yposition Zposition Xrotation Yrotation Zrotation
						JOINT headEnd
						{
							OFFSET 0.000000 22.037384 7.501072
							CHANNELS 6 Xposition Yposition Zposition Xrotation Yrotation Zrotation
							End Site
							{
								OFFSET 0.000000 23.106567 -2.828246
							}
						}
					}
				}
				JOINT rightShoulder
				{
					OFFSET -4.570000 11.014877 -2.160840
					CHANNELS 6 Xposition Yposition Zposition Xrotation Yrotation Zrotation
					JOINT rightUpperArm
					{
						OFFSET -10.592867 -0.524796 -2.232105
						CHANNELS 3 Xrotation Yrotation Zrotation
						JOINT rightLowerArm
						{
							OFFSET -27.841497 0.000000 -0.000002
							CHANNELS 3 Xrotation Yrotation Zrotation
							JOINT rightHand
							{
								OFFSET -28.328812 0.000000 -0.000001
								CHANNELS 3 Xrotation Yrotation Zrotation
								JOINT rightThumbProximal
								{
									OFFSET -2.464798 -1.573990 2.681911
									CHANNELS 6 Xposition Yposition Zposition Xrotation Yrotation Zrotation
									JOINT rightThumbIntermediate
									{
										OFFSET -3.244781 -1.873383 1.873376
										CHANNELS 3 Xrotation Yrotation Zrotation
										JOINT rightThumbDistal
										{
											OFFSET -2.646263 -1.527817 1.527818
											CHANNELS 6 Xposition Yposition Zposition Xrotation Yrotation Zrotation
											JOINT rightHandThumb4
											{
												OFFSET -1.994591 -1.151581 1.151575
												CHANNELS 6 Xposition Yposition Zposition Xrotation Yrotation Zrotation
												End Site
												{
													OFFSET -1.860176 -1.142715 1.365483
												}
											}
										}
									}
								}
								JOINT rightIndexProximal
								{
									OFFSET -9.108299 -0.517883 2.259803
									CHANNELS 6 Xposition Yposition Zposition Xrotation Yrotation Zrotation
									JOINT rightIndexIntermediate
									{
										OFFSET -3.699997 0.000000 0.000000
										CHANNELS 3 Xrotation Yrotation Zrotation
										JOINT rightIndexDistal
										{
											OFFSET -2.850006 0.000000 0.000000
											CHANNELS 3 Xrotation Yrotation Zrotation
											JOINT rightHandIndex4
											{
												OFFSET -2.772194 0.000000 0.000000
												CHANNELS 3 Xrotation Yrotation Zrotation
												End Site
												{
													OFFSET -2.772202 0.000000 -0.000484
												}
											}
										}
									}
								}
								JOINT rightMiddleProximal
								{
									OFFSET -9.532501 0.000000 -0.000000
									CHANNELS 6 Xposition Yposition Zposition Xrotation Yrotation Zrotation
									JOINT rightMiddleIntermediate
									{
										OFFSET -3.699997 0.000000 0.000000
										CHANNELS 3 Xrotation Yrotation Zrotation
										JOINT rightMiddleDistal
										{
											OFFSET -2.949997 0.000000 0.000000
											CHANNELS 3 Xrotation Yrotation Zrotation
											JOINT rightHandMiddle4
											{
												OFFSET -2.946594 0.000000 0.000000
												CHANNELS 3 Xrotation Yrotation Zrotation
												End Site
												{
													OFFSET -2.946602 0.000000 -0.000982
												}
											}
										}
									}
								}
								JOINT rightRingProximal
								{
									OFFSET -9.103600 -0.043106 -1.865100
									CHANNELS 6 Xposition Yposition Zposition Xrotation Yrotation Zrotation
									JOINT rightRingIntermediate
									{
										OFFSET -3.379303 0.000000 0.000000
										CHANNELS 3 Xrotation Yrotation Zrotation
										JOINT rightRingDistal
										{
											OFFSET -2.889694 0.000000 0.000000
											CHANNELS 3 Xrotation Yrotation Zrotation
											JOINT rightHandRing4
											{
												OFFSET -2.638802 0.000000 0.000000
												CHANNELS 3 Xrotation Yrotation Zrotation
												End Site
												{
													OFFSET -2.638802 0.000000 0.004218
												}
											}
										}
									}
								}
								JOINT rightLittleProximal
								{
									OFFSET -8.076698 -0.486725 -3.806299
									CHANNELS 6 Xposition Yposition Zposition Xrotation Yrotation Zrotation
									JOINT rightLittleIntermediate
									{
										OFFSET -3.600006 0.000000 0.000000
										CHANNELS 3 Xrotation Yrotation Zrotation
										JOINT rightLittleDistal
										{
											OFFSET -2.099998 0.000000 0.000000
											CHANNELS 3 Xrotation Yrotation Zrotation
											JOINT rightHandPinky4
											{
												OFFSET -2.115791 0.000000 0.000000
												CHANNELS 3 Xrotation Yrotation Zrotation
												End Site
												{
													OFFSET -2.115799 0.000000 0.000174
												}
											}
										}
									}
								}
							}
						}
					}
				}
				JOINT leftShoulder
				{
					OFFSET 4.570400 11.014679 -2.160816
					CHANNELS 6 Xposition Yposition Zposition Xrotation Yrotation Zrotation
					JOINT leftUpperArm
					{
						OFFSET 10.592373 -0.524597 -2.232116
						CHANNELS 3 Xrotation Yrotation Zrotation
						JOINT leftLowerArm
						{
							OFFSET 27.841488 0.000000 0.000001
							CHANNELS 3 Xrotation Yrotation Zrotation
							JOINT leftHand
							{
								OFFSET 28.328808 0.000000 -0.000000
								CHANNELS 3 Xrotation Yrotation Zrotation
								JOINT leftThumbProximal
								{
									OFFSET 2.466103 -1.576202 2.681698
									CHANNELS 6 Xposition Yposition Zposition Xrotation Yrotation Zrotation
									JOINT leftThumbIntermediate
									{
										OFFSET 3.243317 -1.872528 1.872530
										CHANNELS 3 Xrotation Yrotation Zrotation
										JOINT leftThumbDistal
										{
											OFFSET 2.647881 -1.528763 1.528754
											CHANNELS 6 Xposition Yposition Zposition Xrotation Yrotation Zrotation
											JOINT leftHandThumb4
											{
												OFFSET 1.998924 -1.154083 1.154080
												CHANNELS 6 Xposition Yposition Zposition Xrotation Yrotation Zrotation
												End Site
												{
													OFFSET 1.884041 -1.149155 1.337651
												}
											}
										}
									}
								}
								JOINT leftIndexProximal
								{
									OFFSET 9.109299 -0.518005 2.259900
									CHANNELS 6 Xposition Yposition Zposition Xrotation Yrotation Zrotation
									JOINT leftIndexIntermediate
									{
										OFFSET 3.699997 0.000000 0.000000
										CHANNELS 3 Xrotation Yrotation Zrotation
										JOINT leftIndexDistal
										{
											OFFSET 2.850006 0.000000 0.000000
											CHANNELS 3 Xrotation Yrotation Zrotation
											JOINT leftHandIndex4
											{
												OFFSET 2.774895 0.000000 0.000000
												CHANNELS 3 Xrotation Yrotation Zrotation
												End Site
												{
													OFFSET 2.774902 0.000000 -0.000072
												}
											}
										}
									}
								}
								JOINT leftMiddleProximal
								{
									OFFSET 9.533401 0.000000 0.000000
									CHANNELS 6 Xposition Yposition Zposition Xrotation Yrotation Zrotation
									JOINT leftMiddleIntermediate
									{
										OFFSET 3.699997 0.000000 0.000000
										CHANNELS 3 Xrotation Yrotation Zrotation
										JOINT leftMiddleDistal
										{
											OFFSET 2.949997 0.000000 0.000000
											CHANNELS 3 Xrotation Yrotation Zrotation
											JOINT leftHandMiddle4
											{
												OFFSET 2.952896 0.000000 0.000000
												CHANNELS 3 Xrotation Yrotation Zrotation
												End Site
												{
													OFFSET 2.952904 0.000000 0.000165
												}
											}
										}
									}
								}
								JOINT leftRingProximal
								{
									OFFSET 9.104500 -0.042999 -1.865101
									CHANNELS 6 Xposition Yposition Zposition Xrotation Yrotation Zrotation
									JOINT leftRingIntermediate
									{
										OFFSET 3.149994 0.000000 0.000000
										CHANNELS 3 Xrotation Yrotation Zrotation
										JOINT leftRingDistal
										{
											OFFSET 2.950005 0.000000 0.000000
											CHANNELS 3 Xrotation Yrotation Zrotation
											JOINT leftHandRing4
											{
												OFFSET 2.644302 0.000000 0.000000
												CHANNELS 3 Xrotation Yrotation Zrotation
												End Site
												{
													OFFSET 2.644302 0.000000 0.000083
												}
											}
										}
									}
								}
								JOINT leftLittleProximal
								{
									OFFSET 8.077805 -0.486893 -3.806302
									CHANNELS 6 Xposition Yposition Zposition Xrotation Yrotation Zrotation
									JOINT leftLittleIntermediate
									{
										OFFSET 3.600006 0.000000 0.000000
										CHANNELS 3 Xrotation Yrotation Zrotation
										JOINT leftLittleDistal
										{
											OFFSET 2.099998 0.000000 0.000000
											CHANNELS 3 Xrotation Yrotation Zrotation
											JOINT leftHandPinky4
											{
												OFFSET 2.125496 0.000000 0.000000
												CHANNELS 3 Xrotation Yrotation Zrotation
												End Site
												{
													OFFSET 2.125504 0.000000 -0.001254
												}
											}
										}
									}
								}
							}
						}
					}
				}
			}
		}
	}
	JOINT rightUpperLeg
	{
		OFFSET -8.207800 -6.751701 -1.599544
		CHANNELS 6 Xposition Yposition Zposition Xrotation Yrotation Zrotation
		JOINT rightLowerLeg
		{
			OFFSET 0.000004 -44.370152 0.345934
			CHANNELS 3 Xrotation Yrotation Zrotation
			JOINT rightFoot
			{
				OFFSET 0.000004 -44.423664 -3.043535
				CHANNELS 3 Xrotation Yrotation Zrotation
				JOINT rightToes
				{
					OFFSET 0.000001 -8.728691 10.710592
					CHANNELS 3 Xrotation Yrotation Zrotation
					JOINT rightToesEnd
					{
						OFFSET 0.000000 -0.000665 9.278101
						CHANNELS 3 Xrotation Yrotation Zrotation
						End Site
						{
							OFFSET 0.000000 -0.000665 9.278103
						}
					}
				}
			}
		}
	}
	JOINT leftUpperLeg
	{
		OFFSET 8.207800 -6.751701 -1.599544
		CHANNELS 6 Xposition Yposition Zposition Xrotation Yrotation Zrotation
		JOINT leftLowerLeg
		{
			OFFSET 0.000004 -44.370037 0.346940
			CHANNELS 3 Xrotation Yrotation Zrotation
			JOINT leftFoot
			{
				OFFSET 0.000004 -44.423611 -3.044388
				CHANNELS 3 Xrotation Yrotation Zrotation
				JOINT leftToes
				{
					OFFSET 0.000001 -8.728690 10.710592
					CHANNELS 3 Xrotation Yrotation Zrotation
					JOINT leftToesEnd
					{
						OFFSET 0.000000 -0.000680 9.278101
						CHANNELS 3 Xrotation Yrotation Zrotation
						End Site
						{
							OFFSET 0.000000 -0.000680 9.278101
						}
					}
				}
			}
		}
	}
}
MOTION
Frames: 4
Frame Time: 0.033333
0.478561 101.630867 1.555262 -0.893321 1.577734 -5.359092 0.000000 10.181546 0.131524 1.298039 -1.197540 3.016777 0.728743 0.264196 5.944685 0.710788 0.781492 5.852000 0.000002 16.740395 -2.049021 1.045307 -0.304693 -2.163988 -0.000000 9.617822 1.684975 1.584930 0.544179 -8.140496 0.000000 22.037369 7.501074 -0.000000 0.000000 -0.000000 -4.569998 11.014875 -2.160841 4.508137 3.324383 5.471595 -1.219700 0.655839 67.345412 -0.000010 17.736789 0.000007 -11.193112 -9.123280 10.139272 -2.464788 -1.573997 2.681902 18.491291 0.461451 -10.916088 1.284027 -32.757611 3.089014 -2.646274 -1.527839 1.527816 2.008715 -8.430476 1.114695 -1.994609 -1.151583 1.151580 -0.000000 0.000000 0.000001 -9.108298 -0.517870 2.259804 0.339560 -4.671354 7.844286 0.387039 -2.823578 20.566251 -0.193132 -0.216341 13.843934 0.000000 -0.000000 0.000003 -9.532480 0.000014 -0.000001 0.912575 -8.769263 15.831743 0.919083 -3.991133 33.400424 0.216471 -1.688827 15.898049 -0.000001 -0.000000 -0.000001 -9.103571 -0.043107 -1.865099 2.555821 -11.673029 26.909202 1.710646 -3.886775 40.215454 -0.157959 0.035276 17.815351 0.000001 -0.000000 -0.000000 -8.076675 -0.486727 -3.806301 5.576074 -16.029165 36.940651 1.378680 -4.077632 45.645618 -0.727747 -0.247551 22.122733 -0.000001 0.000000 -0.000002 4.570403 11.014708 -2.160814 3.582357 -13.764043 -5.044479 4.032787 3.514254 -83.678348 -0.000009 -14.506748 0.000012 -27.592615 3.698772 -9.416210 2.466076 -1.576192 2.681695 18.491364 -0.461337 10.916051 1.284027 32.757604 -3.088989 2.647882 -1.528744 1.528754 2.117140 9.311164 -0.358611 1.998921 -1.154073 1.154071 -0.000001 -0.000000 -0.000002 9.109287 -0.518011 2.259900 0.339561 4.671361 -7.844256 0.387005 2.823617 -20.566229 0.034614 0.816852 -10.169820 -0.000002 -0.000001 -0.000002 9.533392 0.000004 0.000001 0.912556 8.769289 -15.831718 0.919048 3.991189 -33.400397 0.170546 1.488896 -12.264410 -0.000000 -0.000002 -0.000000 9.104498 -0.042992 -1.865100 2.555784 11.673079 -26.909181 1.710611 3.886861 -40.215450 0.544837 1.835103 -19.344144 0.000001 0.000000 0.000000 8.077790 -0.486891 -3.806296 5.576040 16.029242 -36.940603 1.378638 4.077721 -45.645611 0.486569 2.853427 -20.524725 0.000001 0.000001 -0.000000 -8.207799 -6.751712 -1.599544 -1.603323 -4.966717 10.554073 12.444906 -5.083597 3.268288 -9.844901 1.009954 -7.756606 -0.548657 -0.000002 -0.000000 -0.000000 0.000001 0.000000 8.207796 -6.751707 -1.599543 -19.556271 10.812974 15.936465 22.045098 9.498152 2.339191 -1.490811 3.351052 -8.781929 -0.441966 -0.000002 -0.000004 0.000000 -0.000000 0.000000 
0.569963 101.642014 1.566008 -0.895822 1.573970 -5.308983 -0.000000 10.181555 0.131524 1.294272 -1.182234 2.986561 0.747788 0.280561 5.908812 0.734429 0.810975 5.820216 0.000000 16.740341 -2.049018 1.073697 -0.217053 -2.163972 0.000001 9.617862 1.684973 1.649870 0.972385 -8.203061 0.000000 22.037384 7.501073 -0.000000 0.000000 -0.000000 -4.570002 11.014879 -2.160838 4.505096 3.348550 5.484561 -1.282080 0.681861 67.366286 0.000005 17.651722 0.000004 -10.983218 -9.603955 9.785223 -2.464791 -1.573991 2.681907 18.491296 0.461461 -10.916104 1.284027 -32.757615 3.089056 -2.646274 -1.527816 1.527821 2.008716 -8.430471 1.114708 -1.994590 -1.151587 1.151577 0.000000 -0.000001 -0.000000 -9.108291 -0.517879 2.259801 0.339567 -4.671351 7.844273 0.387037 -2.823575 20.566214 -0.193127 -0.216340 13.843933 0.000000 0.000000 -0.000001 -9.532484 -0.000004 -0.000002 0.912585 -8.769260 15.831730 0.919078 -3.991125 33.400428 0.216464 -1.688824 15.898051 0.000000 -0.000000 0.000003 -9.103585 -0.043108 -1.865101 2.555819 -11.673013 26.909202 1.710643 -3.886773 40.215478 -0.157955 0.035278 17.815336 0.000001 -0.000000 -0.000000 -8.076672 -0.486724 -3.806296 5.576067 -16.029163 36.940627 1.378691 -4.077640 45.645601 -0.727755 -0.247543 22.122730 -0.000002 0.000000 0.000000 4.570399 11.014679 -2.160812 3.585232 -13.763385 -5.032576 4.078331 3.480543 -83.665583 0.000026 -14.526795 0.000022 -27.561256 3.757616 -9.641945 2.466082 -1.576215 2.681696 18.491381 -0.461335 10.916023 1.284010 32.757604 -3.089000 2.647881 -1.528759 1.528747 2.117138 9.311166 -0.358607 1.998904 -1.154077 1.154063 0.000002 -0.000003 0.000005 9.109289 -0.518010 2.259898 0.339551 4.671367 -7.844278 0.387016 2.823621 -20.566231 0.034607 0.816839 -10.169806 0.000000 0.000000 -0.000004 9.533390 -0.000001 -0.000002 0.912613 8.769492 -15.831713 0.919048 3.991196 -33.400424 0.170552 1.488893 -12.264401 -0.000000 -0.000000 0.000000 9.104495 -0.043005 -1.865103 2.555824 11.673169 -26.909178 1.710628 3.886857 -40.215478 0.544835 1.835110 -19.344144 0.000000 0.000001 0.000000 8.077806 -0.486891 -3.806302 5.576106 16.029322 -36.940610 1.378640 4.077731 -45.645611 0.486576 2.853429 -20.524727 0.000001 0.000000 -0.000001 -8.207801 -6.751717 -1.599545 -1.614278 -5.033498 10.422146 12.509762 -5.064736 3.286027 -9.885229 1.026363 -7.695519 -0.573428 -0.000004 0.000005 -0.000000 0.000000 0.000000 8.207800 -6.751707 -1.599544 -19.513739 10.846920 15.827389 22.036892 9.474166 2.323502 -1.529362 3.375378 -8.715794 -0.443700 -0.000005 -0.000000 0.000000 0.000002 0.000000 
0.661276 101.653442 1.616828 -0.919200 1.540761 -5.252820 -0.000000 10.181549 0.131524 1.273333 -1.167046 2.950519 0.767811 0.272509 5.863588 0.768055 0.841152 5.786869 -0.000002 16.740355 -2.049021 1.111151 -0.129551 -2.163956 -0.000001 9.617860 1.684973 1.689923 1.381471 -8.266359 0.000000 22.037354 7.501077 -0.000000 0.000000 -0.000000 -4.570000 11.014877 -2.160840 4.501156 3.368325 5.471211 -1.467122 0.809879 67.430339 -0.000006 17.504822 0.000029 -10.781305 -10.112024 9.417972 -2.464789 -1.573986 2.681898 18.491296 0.461453 -10.916086 1.284037 -32.757618 3.089034 -2.646272 -1.527798 1.527819 2.008721 -8.430475 1.114707 -1.994593 -1.151581 1.151580 0.000002 0.000002 0.000001 -9.108308 -0.517881 2.259802 0.339558 -4.671351 7.844259 0.387046 -2.823578 20.566236 -0.193133 -0.216336 13.843930 0.000000 0.000000 0.000003 -9.532507 0.000000 -0.000002 0.912589 -8.769259 15.831743 0.919069 -3.991124 33.400428 0.216466 -1.688831 15.898052 -0.000000 -0.000000 -0.000001 -9.103599 -0.043109 -1.865101 2.555812 -11.673000 26.909233 1.710647 -3.886775 40.215478 -0.157955 0.035276 17.815334 -0.000000 0.000000 -0.000000 -8.076694 -0.486723 -3.806299 5.576074 -16.029163 36.940624 1.378685 -4.077634 45.645594 -0.727748 -0.247553 22.122737 0.000001 -0.000000 -0.000000 4.570403 11.014692 -2.160816 3.588095 -13.762716 -5.020705 4.185266 3.462017 -83.654641 -0.000013 -14.634080 -0.000008 -27.561746 3.928962 -9.773237 2.466103 -1.576217 2.681695 18.491378 -0.461332 10.916046 1.284015 32.757604 -3.088981 2.647877 -1.528743 1.528751 2.117156 9.311154 -0.358599 1.998924 -1.154092 1.154074 -0.000003 -0.000003 0.000003 9.109314 -0.518010 2.259899 0.339566 4.671364 -7.844255 0.387005 2.823611 -20.566203 0.034609 0.816852 -10.169808 0.000000 0.000000 0.000001 9.533418 -0.000001 -0.000000 0.912678 8.769698 -15.831694 0.919036 3.991183 -33.400407 0.170563 1.488909 -12.264411 -0.000002 -0.000001 -0.000002 9.104497 -0.043003 -1.865106 2.555884 11.673260 -26.909169 1.710606 3.886855 -40.215454 0.544838 1.835098 -19.344137 0.000000 0.000001 -0.000000 8.077814 -0.486887 -3.806303 5.576192 16.029428 -36.940624 1.378648 4.077731 -45.645611 0.486564 2.853408 -20.524708 0.000001 -0.000000 -0.000003 -8.207797 -6.751703 -1.599544 -1.592852 -5.064681 10.298937 12.570388 -4.998549 3.279320 -9.934687 1.034928 -7.629505 -0.570147 0.000002 -0.000000 0.000000 0.000000 0.000000 8.207798 -6.751687 -1.599547 -19.417917 10.873622 15.730832 22.037930 9.461304 2.289788 -1.599268 3.389242 -8.666022 -0.461413 -0.000003 -0.000003 0.000000 -0.000003 -0.000000 
0.760226 101.665459 1.707131 -0.957225 1.533297 -5.174956 -0.000001 10.181551 0.131524 1.236015 -1.161989 2.907526 0.791164 0.219681 5.803981 0.813893 0.850391 5.746497 -0.000000 16.740368 -2.049020 1.154483 -0.039685 -2.163942 0.000003 9.617835 1.684975 1.680369 1.758287 -8.320380 0.000000 22.037338 7.501076 0.000000 -0.000000 -0.000000 -4.570004 11.014879 -2.160840 4.488087 3.341921 5.362303 -1.769298 0.901638 67.608026 -0.000020 17.475049 0.000044 -10.736485 -10.548900 8.938872 -2.464798 -1.574003 2.681910 18.491277 0.461456 -10.916075 1.284044 -32.757615 3.089045 -2.646259 -1.527821 1.527815 2.008714 -8.430476 1.114679 -1.994598 -1.151587 1.151581 -0.000000 -0.000005 -0.000000 -9.108300 -0.517910 2.259803 0.339571 -4.671352 7.844262 0.387021 -2.823579 20.566227 -0.193114 -0.216344 13.843939 0.000000 -0.000000 0.000000 -9.532499 -0.000002 -0.000002 0.912586 -8.769264 15.831759 0.919075 -3.991129 33.400441 0.216457 -1.688815 15.898042 -0.000001 -0.000000 -0.000000 -9.103600 -0.043118 -1.865103 2.555803 -11.672996 26.909251 1.710660 -3.886787 40.215508 -0.157953 0.035293 17.815309 -0.000000 0.000000 -0.000000 -8.076690 -0.486728 -3.806297 5.576067 -16.029170 36.940644 1.378686 -4.077631 45.645543 -0.727750 -0.247560 22.122740 0.000001 0.000000 0.000001 4.570398 11.014695 -2.160816 3.584643 -13.750743 -5.040181 4.355107 3.441231 -83.595211 0.000004 -14.783349 -0.000009 -27.692363 4.121820 -9.846443 2.466084 -1.576216 2.681691 18.491373 -0.461337 10.916028 1.284026 32.757604 -3.089026 2.647883 -1.528745 1.528751 2.117149 9.311136 -0.358582 1.998917 -1.154083 1.154072 0.000002 0.000002 0.000003 9.109285 -0.518017 2.259900 0.339553 4.671364 -7.844281 0.387001 2.823621 -20.566217 0.034621 0.816849 -10.169820 0.000001 0.000001 -0.000002 9.533404 -0.000003 0.000000 0.912721 8.769897 -15.831695 0.919053 3.991196 -33.400424 0.170556 1.488898 -12.264406 -0.000001 -0.000003 0.000001 9.104499 -0.043011 -1.865103 2.555912 11.673347 -26.909180 1.710614 3.886859 -40.215454 0.544834 1.835104 -19.344151 -0.000001 0.000001 0.000000 8.077809 -0.486886 -3.806304 5.576247 16.029517 -36.940617 1.378645 4.077727 -45.645611 0.486569 2.853430 -20.524727 0.000000 0.000000 0.000001 -8.207802 -6.751704 -1.599544 -1.533223 -5.096670 10.158045 12.635346 -4.929512 3.256079 -10.014029 1.041334 -7.546388 -0.519424 -0.000003 0.000001 -0.000000 -0.000001 -0.000000 8.207802 -6.751701 -1.599543 -19.284482 10.913421 15.612984 22.047255 9.438788 2.244924 -1.702272 3.373142 -8.610942 -0.484156 0.000015 0.000004 -0.000000 0.000000 0.000000 
